<?xml version="1.0" encoding="UTF-8"?>
<svg version="1.1" xmlns="http://www.w3.org/2000/svg" width="512" height="512">
<path d="M0 0 C0.84949219 0.13390137 1.69898438 0.26780273 2.57421875 0.40576172 C45.25540223 7.31549021 85.62170956 26.77169294 119 54 C119.55606934 54.45310547 120.11213867 54.90621094 120.68505859 55.37304688 C133.69529502 66.06277621 145.68534288 77.66046164 156 91 C156.82884603 92.04993813 157.65829714 93.0993988 158.48828125 94.1484375 C164.03119019 101.2023788 169.10236921 108.48001572 174 116 C174.68388794 117.00135986 174.68388794 117.00135986 175.3815918 118.02294922 C194.61283267 146.28475352 205.91012059 180.37002269 211 214 C211.17660156 215.11592529 211.35320312 216.23185059 211.53515625 217.3815918 C213.22585589 229.18403388 213.39850868 240.90321718 213.375 252.8125 C213.37418427 254.36845383 213.37418427 254.36845383 213.37335205 255.95584106 C213.33400423 272.3017109 212.50480769 287.98030825 209 304 C208.67854004 305.52125488 208.67854004 305.52125488 208.35058594 307.07324219 C199.23812418 349.2664603 179.7672537 388.77708556 151 421 C149.89978516 422.26457031 149.89978516 422.26457031 148.77734375 423.5546875 C139.34172492 434.27464646 129.31496678 444.26876579 118 453 C117.43506836 453.44666016 116.87013672 453.89332031 116.28808594 454.35351562 C105.43331731 462.9282607 93.99561975 470.1326097 82 477 C81.36835938 477.3707666 80.73671875 477.7415332 80.0859375 478.12353516 C53.53957507 493.68083444 23.26843566 502.47801127 -7 507 C-7.74217773 507.11714355 -8.48435547 507.23428711 -9.24902344 507.35498047 C-73.71660807 517.21111051 -141.87755282 498.22317112 -194.25878906 460.2890625 C-201.42960859 454.98032342 -208.09822697 449.11174949 -214.6796875 443.09765625 C-216.6870432 441.28292559 -218.73567609 439.54608313 -220.8125 437.8125 C-267.02175255 397.37940402 -294.07597688 333.64838465 -298.80371094 273.34106445 C-299.1847172 266.85590194 -299.24462547 260.36934695 -299.25 253.875 C-299.25067474 253.13422211 -299.25134949 252.39344421 -299.25204468 251.63021851 C-299.16875379 193.52665229 -279.36191184 135.77405418 -242 91 C-241.29689697 90.14462646 -241.29689697 90.14462646 -240.57958984 89.27197266 C-229.8836762 76.28123355 -218.32630088 64.31490302 -205 54 C-203.74679627 52.99553925 -202.49423721 51.99027386 -201.2421875 50.984375 C-190.72305744 42.63046909 -179.68000817 35.61334884 -168 29 C-167.28376465 28.58766113 -166.5675293 28.17532227 -165.82958984 27.75048828 C-139.14359489 12.46984182 -109.20060081 3.87642729 -79 -1 C-77.79657959 -1.19916016 -77.79657959 -1.19916016 -76.56884766 -1.40234375 C-51.67975834 -5.32552985 -24.75061257 -4.07923475 0 0 Z " fill="#E8E8E8" transform="translate(299,3)"/>
<path d="M0 0 C12.40273312 0 12.40273312 0 16.83984375 0.515625 C17.82911865 0.62994873 18.81839355 0.74427246 19.83764648 0.86206055 C21.37207397 1.05409058 21.37207397 1.05409058 22.9375 1.25 C24.57537476 1.45459839 24.57537476 1.45459839 26.24633789 1.66333008 C73.68607874 7.81862867 117.91172257 26.74527476 155 57 C155.55606934 57.45310547 156.11213867 57.90621094 156.68505859 58.37304688 C169.69529502 69.06277621 181.68534288 80.66046164 192 94 C192.82884603 95.04993813 193.65829714 96.0993988 194.48828125 97.1484375 C200.03119019 104.2023788 205.10236921 111.48001572 210 119 C210.68388794 120.00135986 210.68388794 120.00135986 211.3815918 121.02294922 C230.68853137 149.39599863 241.66839261 183.31425107 247 217 C247.11714355 217.73186523 247.23428711 218.46373047 247.35498047 219.21777344 C248.86715566 228.96489969 249 237.96380659 249 248 C226.89 248 204.78 248 182 248 C180.02 233.645 180.02 233.645 178 219 C174.13907801 202.09542262 168.67296515 185.96156043 161.06640625 170.37109375 C160 168 160 168 160 166 C158.57877902 166.4008572 157.16313294 166.82150163 155.75 167.25 C154.96109375 167.48203125 154.1721875 167.7140625 153.359375 167.953125 C150.59456065 169.17989693 149.01037104 170.76830371 147 173 C147.58007812 174.16273438 148.16015625 175.32546875 148.7578125 176.5234375 C157.30097026 193.91218191 162.7489547 210.90285837 166 230 C166.19980469 231.12019531 166.39960938 232.24039063 166.60546875 233.39453125 C167.13523908 238.23589771 167 243.12973452 167 248 C149.84 248 132.68 248 115 248 C114.01 241.4 113.02 234.8 112 228 C111.10814376 224.45160129 110.24523925 221.16959094 109.0625 217.75 C108.82337891 217.00105469 108.58425781 216.25210938 108.33789062 215.48046875 C106.66100991 210.39230828 104.48491931 205.74442478 102 201 C99.08641768 201.68071878 96.82623154 202.52666966 94.25 204.0625 C93.1775 204.701875 92.105 205.34125 91 206 C91.58163645 210.34288548 92.67809569 213.96856673 94.375 218 C98.35129902 228.09634185 100 237.1280611 100 248 C83.17 248 66.34 248 49 248 C47.68 244.04 46.36 240.08 45 236 C40.5766987 236.88466026 38.65703388 237.72670867 35 240 C34.34 240 33.68 240 33 240 C33.144375 240.58265625 33.28875 241.1653125 33.4375 241.765625 C36.46862045 255.15307364 35.67274772 267.88028782 28.3125 279.8125 C21.63350805 288.91262653 12.30161884 295.94141733 1 298 C-12.10312132 298.9001018 -23.58487804 297.78736923 -33.97265625 288.90234375 C-34.64167969 288.27457031 -35.31070313 287.64679688 -36 287 C-36.63808594 286.40316406 -37.27617187 285.80632812 -37.93359375 285.19140625 C-46.14901074 276.69330824 -49.36653374 265.55676341 -49.2109375 253.96484375 C-48.36795208 242.11621534 -42.89544402 231.95575078 -34.3515625 223.82421875 C-26.11072276 217.43140786 -17.926456 214.82190256 -7.6875 214.875 C-6.95337891 214.87113281 -6.21925781 214.86726562 -5.46289062 214.86328125 C-0.87466297 214.87142362 3.47368339 215.24661045 8 216 C8.99 214.02 9.98 212.04 11 210 C11.66 210 12.32 210 13 210 C13.99 207.03 13.99 207.03 15 204 C13.50146484 203.69255859 13.50146484 203.69255859 11.97265625 203.37890625 C10.03712891 202.97478516 10.03712891 202.97478516 8.0625 202.5625 C6.77472656 202.29566406 5.48695313 202.02882812 4.16015625 201.75390625 C1 201 1 201 0 200 C-0.09333705 198.40389018 -0.11745372 196.80366572 -0.11352539 195.20483398 C-0.11344986 194.18385117 -0.11337433 193.16286835 -0.11329651 192.11094666 C-0.10813522 191.0005452 -0.10297394 189.89014374 -0.09765625 188.74609375 C-0.0962413 187.61551041 -0.09482635 186.48492706 -0.09336853 185.32008362 C-0.08775019 181.69252935 -0.07519458 178.06503576 -0.0625 174.4375 C-0.05748736 171.98502693 -0.05292405 169.5325529 -0.04882812 167.08007812 C-0.0377748 161.05336455 -0.02101884 155.02668661 0 149 C5.80788094 148.93551435 10.90319104 149.33222652 16.5625 150.625 C17.33464844 150.79741211 18.10679687 150.96982422 18.90234375 151.14746094 C25.61732684 152.73538932 31.83077636 155.0978992 38.15625 157.828125 C40.79556685 159.12700177 40.79556685 159.12700177 43 159 C43.66 157.35 44.32 155.7 45 154 C45.66 154 46.32 154 47 154 C47.33 151.69 47.66 149.38 48 147 C32.0554417 140.30060576 17.45421103 136.75592806 0 134 C0 116.84 0 99.68 0 82 C14.01391142 82 14.01391142 82 20.5625 83.1875 C21.69776123 83.3882312 21.69776123 83.3882312 22.85595703 83.59301758 C40.01854434 86.76049077 56.81771757 91.73322034 72.38671875 99.7421875 C74.96715849 101.21684706 74.96715849 101.21684706 78 101 C78.495 99.515 78.495 99.515 79 98 C79.66 98 80.32 98 81 98 C81.33 96.35 81.66 94.7 82 93 C82.66 93 83.32 93 84 93 C83.33556549 90.00687414 83.33556549 90.00687414 81.47558594 88.94433594 C80.48993652 88.46915527 80.48993652 88.46915527 79.484375 87.984375 C78.73913574 87.62375977 77.99389648 87.26314453 77.22607422 86.89160156 C76.40896973 86.51487305 75.59186523 86.13814453 74.75 85.75 C73.89809082 85.35522461 73.04618164 84.96044922 72.16845703 84.55371094 C48.93393756 74.04921554 25.28355855 69.80928428 0 67 C0 44.89 0 22.78 0 0 Z " fill="#5F5F5F" transform="translate(263,0)"/>
<path d="M0 0 C0 22.11 0 44.22 0 67 C-8.25 67.99 -16.5 68.98 -25 70 C-57.19913299 76.70039762 -86.65762568 88.74558988 -112.1796875 109.78515625 C-115 112 -115 112 -119 114 C-117.02 119.94 -117.02 119.94 -115 126 C-118.39551411 127.45908033 -121.79139699 128.91729153 -125.1875 130.375 C-126.14720703 130.7875 -127.10691406 131.2 -128.09570312 131.625 C-129.02705078 132.02460938 -129.95839844 132.42421875 -130.91796875 132.8359375 C-131.77156982 133.20251465 -132.6251709 133.5690918 -133.50463867 133.94677734 C-135.21880254 134.67027826 -136.95211117 135.34952661 -138.69873047 135.99072266 C-141.77798406 137.3412037 -142.91933433 139.33493669 -144.9375 142 C-151.45569454 148.92745331 -159.47369273 148.54205451 -168.5390625 148.9140625 C-170.02590797 148.94896498 -171.51287809 148.98009887 -173 149 C-172.7834375 150.73636719 -172.7834375 150.73636719 -172.5625 152.5078125 C-172.37481224 154.04685211 -172.18732273 155.58591591 -172 157.125 C-171.90460938 157.88554687 -171.80921875 158.64609375 -171.7109375 159.4296875 C-171.20169812 163.64909952 -170.89111932 167.74004344 -171 172 C-170.04867187 171.89042969 -169.09734375 171.78085938 -168.1171875 171.66796875 C-158.00236379 170.51698011 -147.87854091 169.460401 -137.75 168.4375 C-136.50847168 168.31076904 -135.26694336 168.18403809 -133.98779297 168.0534668 C-125.66358711 167.21928424 -117.34685374 166.5632517 -109 166 C-109.99 158.41 -110.98 150.82 -112 143 C-116.29 143 -120.58 143 -125 143 C-118.11582765 133.42932137 -110.23393153 126.30556028 -101 119 C-100.12988281 118.28972656 -99.25976562 117.57945313 -98.36328125 116.84765625 C-70.75832827 95.07085311 -35.17086006 82 0 82 C0 99.16 0 116.32 0 134 C-11.385 135.98 -11.385 135.98 -23 138 C-44.86000699 144.26653534 -62.43581203 154.37916612 -79 170 C-79.67675781 170.61230469 -80.35351562 171.22460938 -81.05078125 171.85546875 C-101.87158288 191.42451878 -111.91890402 220.27013617 -115 248 C-132.16 248 -149.32 248 -167 248 C-167 234.90648855 -167 234.90648855 -165.9375 228.3125 C-165.74885376 227.13022827 -165.74885376 227.13022827 -165.55639648 225.92407227 C-163.05639686 211.54803218 -158.58185343 197.45778728 -153 184 C-160.425 184.99 -160.425 184.99 -168 186 C-170.77919238 192.6928715 -173.15781495 199.32185314 -175.0625 206.3125 C-175.31926514 207.25311279 -175.57603027 208.19372559 -175.84057617 209.1628418 C-179.19006185 221.93215763 -180.54530419 234.90773768 -182 248 C-204.11 248.33 -226.22 248.66 -249 249 C-249 193.23500487 -227.65736529 136.73134663 -192 94 C-191.29689697 93.14462646 -191.29689697 93.14462646 -190.57958984 92.27197266 C-179.8836762 79.28123355 -168.32630088 67.31490302 -155 57 C-153.74679627 55.99553925 -152.49423721 54.99027386 -151.2421875 53.984375 C-140.72305744 45.63046909 -129.68000817 38.61334884 -118 32 C-117.28376465 31.58766113 -116.5675293 31.17532227 -115.82958984 30.75048828 C-81.3228818 10.99162948 -39.71097121 0 0 0 Z " fill="#242424" transform="translate(249,0)"/>
<path d="M0 0 C22.11 0 44.22 0 67 0 C67 10.1227386 66.93156012 19.16842569 65.375 29 C65.19678711 30.15008545 65.01857422 31.3001709 64.83496094 32.48510742 C57.1753142 79.70339503 36.91301108 124.25344468 5 160 C4.26652344 160.84304688 3.53304687 161.68609375 2.77734375 162.5546875 C-6.65827508 173.27464646 -16.68503322 183.26876579 -28 192 C-28.56493164 192.44666016 -29.12986328 192.89332031 -29.71191406 193.35351562 C-40.56668269 201.9282607 -52.00438025 209.1326097 -64 216 C-64.63164062 216.3707666 -65.26328125 216.7415332 -65.9140625 217.12353516 C-100.30041163 237.27540064 -142.21868347 248 -182 248 C-182 225.89 -182 203.78 -182 181 C-169.625 179.515 -169.625 179.515 -157 178 C-152.59406178 177.17699061 -148.37721413 176.35686434 -144.0625 175.25 C-142.52142578 174.86593994 -142.52142578 174.86593994 -140.94921875 174.47412109 C-131.63033837 172.06451658 -122.80166386 168.87035161 -114 165 C-113.29472168 164.69868164 -112.58944336 164.39736328 -111.86279297 164.08691406 C-66.11542978 144.43187509 -31.65897149 106.05891088 -13.0390625 60.37109375 C-5.37370094 40.72815743 -2.45969181 20.9073804 0 0 Z " fill="#242424" transform="translate(445,264)"/>
<path d="M0 0 C33.165 0.495 33.165 0.495 67 1 C68.32 10.57 69.64 20.14 71 30 C82.57790168 82.10055757 112.28103083 124.78183157 157.1328125 153.703125 C185.66510547 171.49490252 215.95854421 178.32872713 249 182 C249 204.11 249 226.22 249 249 C188.3410213 249 128.815063 223.7566524 84.3203125 183.09765625 C82.3129568 181.28292559 80.26432391 179.54608313 78.1875 177.8125 C31.78337132 137.2088874 4.98021235 73.40107112 0.11328125 12.8984375 C-0.05463597 8.60207267 0 4.29964498 0 0 Z " fill="#242424" transform="translate(0,263)"/>
<path d="M0 0 C17.16 0 34.32 0 52 0 C49.55628116 19.54975068 44.67131947 33.69704674 36 51 C37.41601714 51.48108275 38.83284437 51.95978141 40.25 52.4375 C41.03890625 52.70433594 41.8278125 52.97117187 42.640625 53.24609375 C44.74821988 53.91954708 46.84753973 54.49150595 49 55 C58.41816329 37.21532936 63.77169954 20.05470418 66 0 C83.16 0 100.32 0 118 0 C118 6.55990344 117.90917213 12.43406475 116.875 18.8125 C116.68031128 20.0185791 116.68031128 20.0185791 116.48168945 21.24902344 C111.65598017 49.14522159 100.31176274 75.60974609 83 98 C82.31808594 98.90492188 81.63617188 99.80984375 80.93359375 100.7421875 C52.38907928 137.24883409 11.36731195 158.57521708 -33.8984375 165.60546875 C-38.91087358 166.08761736 -43.96442826 166 -49 166 C-49 149.17 -49 132.34 -49 115 C-41.74 113.68 -34.48 112.36 -27 111 C-18.11000701 108.460002 -9.49029749 105.65327705 -1 102 C-2.6462291 97.06131271 -6.42957383 94.31729876 -11 92 C-13.46480237 92.08988723 -15.05583255 92.80948627 -17.30078125 93.82421875 C-20.69608638 95.30321563 -24.17029447 96.22207654 -27.75 97.125 C-29.62945312 97.62386719 -29.62945312 97.62386719 -31.546875 98.1328125 C-37.28990001 99.25119105 -43.16632743 99.55125596 -49 100 C-49 82.84 -49 65.68 -49 48 C-44.05 46.68 -39.1 45.36 -34 44 C-18.91804593 36.09992882 -8.96495617 26.16650664 -3 10 C-2.01 6.7 -1.02 3.4 0 0 Z " fill="#242424" transform="translate(312,264)"/>
<path d="M0 0 C17.16 0 34.32 0 52 0 C52.99 6.6 53.98 13.2 55 20 C63.8177726 53.45566664 83.8828332 81.41455363 114 99 C130.71164866 108.22771753 148.11351806 111.56609419 167 115 C167 131.83 167 148.66 167 166 C131.27242949 166 96.07216016 153.06722302 68 131 C67.10023438 130.32066406 66.20046875 129.64132812 65.2734375 128.94140625 C28.80898132 100.49052525 7.37119477 59.31000481 0.39453125 14.07421875 C-0.05782847 9.40282086 0 4.69324915 0 0 Z " fill="#242424" transform="translate(82,264)"/>
<path d="M0 0 C17.16 0 34.32 0 52 0 C49.55628116 19.54975068 44.67131947 33.69704674 36 51 C36.59095459 51.19118408 37.18190918 51.38236816 37.79077148 51.5793457 C41.9708344 52.94881637 46.06155491 54.34579512 50.0625 56.1875 C50.81660156 56.53167969 51.57070313 56.87585938 52.34765625 57.23046875 C53.16556641 57.61138672 53.16556641 57.61138672 54 58 C50.50637577 61.71197575 46.82409789 64.70990019 42.671875 67.66796875 C40.8678526 68.91356882 40.8678526 68.91356882 40 71 C40.66 71.33 41.32 71.66 42 72 C39.69 74.31 37.38 76.62 35 79 C39.12324647 83.25209792 43.51282966 87.13635705 48 91 C46.43342361 96.14874787 43.20917623 99.70386824 39.8125 103.75 C38.6373289 105.17130317 37.46284507 106.5931749 36.2890625 108.015625 C35.72348633 108.69818359 35.15791016 109.38074219 34.57519531 110.08398438 C31.635468 113.65977172 28.81750215 117.32792666 26 121 C25.5153125 120.63575928 25.030625 120.27151855 24.53125 119.89624023 C21.02810958 117.26593756 17.52084021 114.64173066 14 112.03515625 C-2.43674766 99.83734867 -2.43674766 99.83734867 -8.4375 93.375 C-11.11002 91.56643062 -11.11002 91.56643062 -14.8125 93 C-15.58722656 93.30679688 -16.36195313 93.61359375 -17.16015625 93.9296875 C-20.63286863 95.2385227 -24.16021261 96.20403504 -27.75 97.125 C-29.62945312 97.62386719 -29.62945312 97.62386719 -31.546875 98.1328125 C-37.28990001 99.25119105 -43.16632743 99.55125596 -49 100 C-49 82.84 -49 65.68 -49 48 C-44.05 46.68 -39.1 45.36 -34 44 C-18.91804593 36.09992882 -8.96495617 26.16650664 -3 10 C-2.01 6.7 -1.02 3.4 0 0 Z " fill="#252525" transform="translate(312,264)"/>
<path d="M0 0 C12.40273312 0 12.40273312 0 16.83984375 0.515625 C17.82911865 0.62994873 18.81839355 0.74427246 19.83764648 0.86206055 C21.37207397 1.05409058 21.37207397 1.05409058 22.9375 1.25 C24.0294165 1.38639893 25.12133301 1.52279785 26.24633789 1.66333008 C59.67937735 6.00126146 90.55170766 16.67414462 120 33 C116.99236488 39.58513795 113.38923933 45.71665754 109.51611328 51.8190918 C104.5133543 59.71756325 99.68536082 67.72071903 94.84606934 75.71990967 C94.10298695 76.94813873 93.35968762 78.17623659 92.6161499 79.40419006 C91.61970506 81.05004415 90.62427469 82.69651229 89.62890625 84.34301758 C88.45798525 86.2529596 87.24269367 88.1359595 86 90 C81.3785926 89.37788747 77.61252563 87.44137085 73.5 85.375 C50.07710979 74.07927039 25.72844191 69.85871577 0 67 C0 44.89 0 22.78 0 0 Z " fill="#242424" transform="translate(263,0)"/>
<path d="M0 0 C20.24645149 22.4645942 28.06571794 62.57331346 32.375 91.5625 C32.62697144 93.23759644 32.62697144 93.23759644 32.8840332 94.9465332 C34.0535199 103.50571005 34 111.1760557 34 120 C11.89 120 -10.22 120 -33 120 C-34.32 110.43 -35.64 100.86 -37 91 C-40.83622775 74.20354338 -46.19221595 58.07563737 -53.86669922 42.62988281 C-55.23095296 39.85739249 -56 38.14148634 -56 35 C-53.84228516 33.3527832 -53.84228516 33.3527832 -50.7890625 31.55078125 C-49.65774902 30.8745874 -48.52643555 30.19839355 -47.36083984 29.50170898 C-46.11565983 28.77180214 -44.87037751 28.04206982 -43.625 27.3125 C-41.71788285 26.17988853 -39.81294503 25.04366743 -37.9079895 23.90742493 C-36.59520515 23.12491265 -35.28161407 22.34375232 -33.96725464 21.56388855 C-29.42176809 18.86385301 -24.91162461 16.1119574 -20.421875 13.3203125 C-19.82341766 12.94865463 -19.22496033 12.57699677 -18.60836792 12.19407654 C-15.73694313 10.40957818 -12.86846004 8.62057334 -10.00244141 6.82739258 C-8.97812012 6.19212646 -7.95379883 5.55686035 -6.8984375 4.90234375 C-5.99786621 4.34023193 -5.09729492 3.77812012 -4.16943359 3.19897461 C-2 2 -2 2 0 2 C0 1.34 0 0.68 0 0 Z " fill="#242424" transform="translate(478,128)"/>
<path d="M0 0 C17.16 0 34.32 0 52 0 C53.65 5.28 55.3 10.56 57 16 C59.25196872 19.97165393 61.30480152 23.40438768 64 27 C64.47179687 27.65355469 64.94359375 28.30710937 65.4296875 28.98046875 C74.26720125 40.28949058 87.40867865 45.28173573 101 48 C101 65.16 101 82.32 101 100 C74.52018655 97.96309127 52.12239224 88.60205504 33 70 C32.24203125 69.30390625 31.4840625 68.6078125 30.703125 67.890625 C11.32395935 49.5806547 3.43798291 25.78487181 0 0 Z " fill="#252525" transform="translate(148,264)"/>
<path d="M0 0 C0 16.83 0 33.66 0 51 C-2.31 51.66 -4.62 52.32 -7 53 C-21.97001608 57.80381113 -34.40267172 65.98071644 -41.89550781 80.13427734 C-45.08508598 86.40643505 -46.93452135 92.11507118 -49 99 C-66.16 99 -83.32 99 -101 99 C-95.98515209 67.23929658 -84.34980813 40.20928647 -58.03930664 20.51635742 C-41.07087318 8.27117297 -21.12692427 0 0 0 Z " fill="#252525" transform="translate(249,149)"/>
<path d="M0 0 C1.10118164 -0.01836914 1.10118164 -0.01836914 2.22460938 -0.03710938 C7.08951004 -0.05005942 11.07118574 0.64466313 15.6875 2.1875 C14.18823582 6.3181848 12.13786123 9.9676744 9.84375 13.6953125 C9.28911072 14.60626175 9.28911072 14.60626175 8.7232666 15.53561401 C7.5482199 17.46343081 6.36787588 19.38794267 5.1875 21.3125 C4.39419653 22.61307714 3.60122442 23.91385647 2.80859375 25.21484375 C-2.88671875 34.54882813 -2.88671875 34.54882813 -5.3125 38.1875 C-5.63752803 41.30776907 -5.82401479 43.33497535 -4.1875 46.0625 C-1.42997573 47.71701456 0.50171908 47.45851385 3.6875 47.1875 C6.79306589 45.828961 6.79306589 45.828961 9.86328125 43.86328125 C10.71746895 43.34836372 10.71746895 43.34836372 11.58891296 42.82304382 C13.40039495 41.72760267 15.20023021 40.6145574 17 39.5 C18.78672874 38.41024793 20.5756916 37.3242294 22.36471558 36.23825073 C24.08161379 35.19502314 25.79595965 34.14759872 27.51025391 33.10009766 C31.51342396 30.69032094 35.57447586 28.40365924 39.6875 26.1875 C44.4594721 37.92158437 43.49334618 48.53968589 38.6875 60.1875 C32.81958035 71.78065432 22.99576406 78.80204907 10.83203125 82.796875 C-0.2865963 84.82212592 -12.12194877 83.6393303 -21.8046875 77.64453125 C-24.11929628 75.94169617 -26.21766718 74.15317164 -28.3125 72.1875 C-29.26962891 71.29224609 -29.26962891 71.29224609 -30.24609375 70.37890625 C-38.46151074 61.88080824 -41.67903374 50.74426341 -41.5234375 39.15234375 C-40.68045208 27.30371534 -35.20794402 17.14325078 -26.6640625 9.01171875 C-18.44268333 2.63400434 -10.21902067 0.00883234 0 0 Z " fill="#242424" transform="translate(255.3125,214.8125)"/>
<path d="M0 0 C14.01391142 0 14.01391142 0 20.5625 1.1875 C21.31934082 1.3213208 22.07618164 1.4551416 22.85595703 1.59301758 C35.52663518 3.93147812 47.69760353 7.26573937 59.6875 12 C60.5007373 12.3199292 61.31397461 12.6398584 62.15185547 12.96948242 C67.46409524 15.14856691 72.23174737 17.80534438 77 21 C75.40747631 25.4217945 73.15026012 29.35563797 70.75 33.375 C70.32541504 34.09163818 69.90083008 34.80827637 69.46337891 35.54663086 C63.39647442 45.75025664 57.19434491 55.8734409 51 66 C50.45287354 65.77860352 49.90574707 65.55720703 49.34204102 65.32910156 C32.85177142 58.71026515 17.65015294 54.71540815 0 52 C0 34.84 0 17.68 0 0 Z " fill="#252525" transform="translate(263,82)"/>
<path d="M0 0 C3 1 3 1 4.0715332 2.57202148 C4.39468506 3.24821533 4.71783691 3.92440918 5.05078125 4.62109375 C5.59955933 5.76276001 5.59955933 5.76276001 6.15942383 6.92749023 C6.73019653 8.16994507 6.73019653 8.16994507 7.3125 9.4375 C7.90744263 10.7215271 7.90744263 10.7215271 8.5144043 12.03149414 C15.25388844 26.89442705 19.26583259 41.93907888 22 58 C22.19980469 59.12019531 22.39960938 60.24039063 22.60546875 61.39453125 C23.13523908 66.23589771 23 71.12973452 23 76 C5.84 76 -11.32 76 -29 76 C-29.99 69.4 -30.98 62.8 -32 56 C-32.89185624 52.45160129 -33.75476075 49.16959094 -34.9375 45.75 C-35.29618164 44.62658203 -35.29618164 44.62658203 -35.66210938 43.48046875 C-37.14298065 38.98705986 -38.9689485 34.9355533 -41.33032227 30.83300781 C-42 29 -42 29 -41.921875 26.97607422 C-40.5786879 24.09690144 -38.72828339 23.25986744 -35.99609375 21.6796875 C-34.95211426 21.06609375 -33.90813477 20.4525 -32.83251953 19.8203125 C-31.15198486 18.85738281 -31.15198486 18.85738281 -29.4375 17.875 C-27.15145764 16.54057938 -24.86630183 15.20463882 -22.58203125 13.8671875 C-20.89907959 12.88637207 -20.89907959 12.88637207 -19.18212891 11.88574219 C-14.25952585 8.96858813 -9.44579631 5.88100426 -4.68530273 2.70654297 C-3.17023573 1.72796213 -1.58953886 0.85229966 0 0 Z " fill="#242424" transform="translate(407,172)"/>
<path d="M0 0 C5.57853961 1.76777251 9.49088863 5.42987814 13.91601562 9.09960938 C14.51220703 9.58365234 15.10839844 10.06769531 15.72265625 10.56640625 C16.25640869 11.00927979 16.79016113 11.45215332 17.34008789 11.90844727 C19.252817 13.16625162 20.73029842 13.70776986 23 14 C23.78375 13.484375 24.5675 12.96875 25.375 12.4375 C28 11 28 11 30.75 11.5625 C31.8225 12.036875 32.895 12.51125 34 13 C34.78632813 13.34160156 35.57265625 13.68320312 36.3828125 14.03515625 C38.598027 15.00387858 40.80167716 15.99365666 43 17 C42.566875 17.47050781 42.13375 17.94101562 41.6875 18.42578125 C41.130625 19.04839844 40.57375 19.67101562 40 20.3125 C39.443125 20.92738281 38.88625 21.54226563 38.3125 22.17578125 C36.70798502 24.03131335 36.70798502 24.03131335 37 27 C38.96094234 28.85297379 40.89063861 30.52233971 43 32.1875 C43.57234375 32.65091797 44.1446875 33.11433594 44.734375 33.59179688 C46.14977971 34.73591568 47.57407451 35.86902041 49 37 C47.44301719 41.90543378 44.56676327 45.37950236 41.375 49.3125 C40.859375 49.95767578 40.34375 50.60285156 39.8125 51.26757812 C38.54705818 52.8493804 37.27425738 54.42529063 36 56 C32.87848767 55.40571044 31.02915283 54.47912631 28.6015625 52.4453125 C27.64612549 51.65519775 27.64612549 51.65519775 26.67138672 50.84912109 C25.9960791 50.28016113 25.32077148 49.71120117 24.625 49.125 C23.18308141 47.93133703 21.74035882 46.73864467 20.296875 45.546875 C19.57435547 44.94810547 18.85183594 44.34933594 18.10742188 43.73242188 C15.06652415 41.23262921 11.97659718 38.79877349 8.875 36.375 C8.31546631 35.93486572 7.75593262 35.49473145 7.17944336 35.04125977 C4.15812246 32.66857422 1.11643586 30.32687595 -1.94921875 28.01171875 C-2.59552246 27.51816895 -3.24182617 27.02461914 -3.90771484 26.51611328 C-5.14771781 25.56982033 -6.393883 24.6315307 -7.64697266 23.70263672 C-11.7777929 20.53419824 -11.7777929 20.53419824 -12.80664062 18.06079102 C-13.05696093 15.39292016 -12.44071758 14.66468882 -10.76171875 12.6171875 C-10.27123047 12.00746094 -9.78074219 11.39773438 -9.27539062 10.76953125 C-8.75138672 10.14433594 -8.22738281 9.51914062 -7.6875 8.875 C-7.17509766 8.24207031 -6.66269531 7.60914063 -6.13476562 6.95703125 C-4.16432041 4.53700596 -2.20809205 2.20809205 0 0 Z " fill="#CFCFCF" transform="translate(311,318)"/>
<path d="M0 0 C5.80755146 -0.06448199 10.9036077 0.33107634 16.5625 1.625 C17.33464844 1.7988623 18.10679687 1.97272461 18.90234375 2.15185547 C37.60027792 6.60027792 37.60027792 6.60027792 43 12 C42.29822632 13.15447632 42.29822632 13.15447632 41.58227539 14.33227539 C29.23721989 34.6335926 29.23721989 34.6335926 17 55 C13.00863277 54.45350473 9.05899444 53.871196 5.125 53 C4.36445313 52.835 3.60390625 52.67 2.8203125 52.5 C1 52 1 52 0 51 C-0.09333705 49.40389018 -0.11745372 47.80366572 -0.11352539 46.20483398 C-0.11344986 45.18385117 -0.11337433 44.16286835 -0.11329651 43.11094666 C-0.10813522 42.0005452 -0.10297394 40.89014374 -0.09765625 39.74609375 C-0.0962413 38.61551041 -0.09482635 37.48492706 -0.09336853 36.32008362 C-0.08775019 32.69252935 -0.07519458 29.06503576 -0.0625 25.4375 C-0.05748736 22.98502693 -0.05292405 20.5325529 -0.04882812 18.08007812 C-0.0377748 12.05336455 -0.02101884 6.02668661 0 0 Z " fill="#272727" transform="translate(263,149)"/>
<path d="M0 0 C3.22737726 2.96907502 4.52273473 6.25790882 6 10.3125 C6.39082764 11.37513062 6.39082764 11.37513062 6.78955078 12.45922852 C10.3308582 22.38884191 12 31.4071559 12 42 C-4.83 42 -21.66 42 -39 42 C-43 30 -43 30 -42 26 C-40.29199219 24.55883789 -40.29199219 24.55883789 -38.046875 23.22265625 C-36.79040161 22.46118286 -36.79040161 22.46118286 -35.50854492 21.68432617 C-34.5982251 21.14912354 -33.68790527 20.6139209 -32.75 20.0625 C-30.84482845 18.91443353 -28.93988762 17.76598411 -27.03515625 16.6171875 C-26.04660645 16.02647461 -25.05805664 15.43576172 -24.03955078 14.82714844 C-19.05701795 11.83202589 -14.1245741 8.75675703 -9.1875 5.6875 C-7.41039208 4.58685871 -5.63307019 3.4865628 -3.85546875 2.38671875 C-2.73628052 1.69388794 -2.73628052 1.69388794 -1.59448242 0.98706055 C-1.06830322 0.66133057 -0.54212402 0.33560059 0 0 Z " fill="#242424" transform="translate(351,206)"/>
<path d="M0 0 C0.33675279 2.89547264 0.66951734 5.79131072 1 8.6875 C1.09539062 9.50412109 1.19078125 10.32074219 1.2890625 11.16210938 C1.73870522 15.12860052 2.13034543 19.00002463 2 23 C-10.26092831 24.78842538 -22.50031614 26.34335465 -34.85205078 27.35302734 C-39.80051586 27.75533328 -39.80051586 27.75533328 -44.6953125 28.55078125 C-47.75986021 29.14810835 -50.69410848 29.0939989 -53.8125 29.0625 C-54.97394531 29.05347656 -56.13539062 29.04445312 -57.33203125 29.03515625 C-58.21246094 29.02355469 -59.09289062 29.01195312 -60 29 C-61.70994772 21.2441657 -62.24923458 13.93396732 -62 6 C-55.33082217 4.81971595 -48.71532855 3.78163608 -41.9609375 3.24609375 C-39.92483487 3.10089981 -39.92483487 3.10089981 -38 2 C-36.02436705 1.81227017 -34.0437963 1.67578299 -32.0625 1.5625 C-27.69923438 1.28697287 -23.3677136 0.94929339 -19.0234375 0.45703125 C-18.18031006 0.36156006 -17.33718262 0.26608887 -16.46850586 0.16772461 C-14.80712569 -0.02442305 -13.14643312 -0.22263242 -11.48657227 -0.42749023 C-7.4147769 -0.89467562 -4.00951 -1.14557429 0 0 Z " fill="#B4B4B4" transform="translate(138,143)"/>
<path d="M0 0 C0 5.94 0 11.88 0 18 C-1.27875 18.45375 -2.5575 18.9075 -3.875 19.375 C-8.2466407 21.22841449 -10.26832379 23.43200195 -13.1875 27.125 C-18.96004433 33.40552823 -25.49374553 33.33590371 -33.68432617 33.79736328 C-36.12367386 33.89708176 -38.55894787 33.96733307 -41 34 C-41.33 34.99 -41.66 35.98 -42 37 C-42.268125 35.824375 -42.53625 34.64875 -42.8125 33.4375 C-43.51656342 30.57059428 -44.3815209 27.9880427 -45.625 25.3125 C-46.92518178 22.1802439 -47.30251825 20.32770078 -47 17 C-43.535 16.505 -43.535 16.505 -40 16 C-40 15.34 -40 14.68 -40 14 C-38.82824219 13.62488281 -37.65648438 13.24976563 -36.44921875 12.86328125 C-28.57753062 10.31068673 -20.94942519 7.68761116 -13.4765625 4.1015625 C-4.25531915 0 -4.25531915 0 0 0 Z " fill="#4D4D4D" transform="translate(117,115)"/>
<path d="M0 0 C3.69885409 0.73977082 6.19044545 1.37686508 9.51489258 2.85766602 C10.8056646 3.42814415 10.8056646 3.42814415 12.12251282 4.01014709 C13.0372789 4.42058762 13.95204498 4.83102814 14.89453125 5.25390625 C15.84188644 5.67421616 16.78924164 6.09452606 17.76530457 6.52757263 C20.78317219 7.86780456 23.79785005 9.21504828 26.8125 10.5625 C28.86112161 11.47377169 30.90994746 12.38458439 32.95898438 13.29492188 C37.97503612 15.52463228 42.98848901 17.76010392 48 20 C37.95066771 30.05347977 37.95066771 30.05347977 34 32 C30.59754701 31.73869161 28.03130264 30.48377337 25 29 C22.95920862 28.23257105 22.95920862 28.23257105 21 28 C20.175 28.495 19.35 28.99 18.5 29.5 C16 31 16 31 14.06445312 30.75732422 C11.79124702 29.92342103 10.33606603 28.91771319 8.46875 27.3828125 C7.82292969 26.85816406 7.17710937 26.33351563 6.51171875 25.79296875 C5.51591797 24.96732422 5.51591797 24.96732422 4.5 24.125 C3.17743759 23.04383733 1.85453087 21.96309569 0.53125 20.8828125 C-0.34176758 20.16182373 -0.34176758 20.16182373 -1.23242188 19.42626953 C-3.11842718 17.90444039 -5.06126145 16.45405391 -7 15 C-3.535 7.575 -3.535 7.575 0 0 Z " fill="#4D4D4D" transform="translate(318,302)"/>
<path d="M0 0 C0.99773437 0.86109375 1.99546875 1.7221875 3.0234375 2.609375 C6.8432112 5.88237045 10.71967341 9.07983899 14.625 12.25 C15.32085205 12.81501221 16.0167041 13.38002441 16.73364258 13.9621582 C22.538121 18.65811716 28.42432174 23.23387658 34.36621094 27.75439453 C37.35636669 30.03409786 40.33341776 32.33085798 43.3125 34.625 C44.41270839 35.4714218 45.51296372 36.31778259 46.61328125 37.1640625 C47.40089844 37.76992188 48.18851562 38.37578125 49 39 C48.06981474 40.46300982 47.13055973 41.92025579 46.1875 43.375 C45.66542969 44.18710937 45.14335937 44.99921875 44.60546875 45.8359375 C43 48 43 48 40 50 C39.17757812 49.28714844 38.35515625 48.57429688 37.5078125 47.83984375 C31.60522373 42.76246265 25.69692749 37.96999561 19.24609375 33.59375 C16.42639287 31.59298833 13.91286482 29.34753112 11.34765625 27.03515625 C8.20864993 24.31398771 4.95575246 21.75099899 1.6875 19.1875 C1.07616211 18.70700195 0.46482422 18.22650391 -0.16503906 17.73144531 C-2.72870594 15.72800292 -5.29152118 13.80565255 -8 12 C-6.59023295 8.96147295 -4.91129772 6.4060405 -2.875 3.75 C-2.06675781 2.69039063 -2.06675781 2.69039063 -1.2421875 1.609375 C-0.83226562 1.07828125 -0.42234375 0.5471875 0 0 Z " fill="#6E6E6E" transform="translate(297,335)"/>
<path d="M0 0 C3.6742653 0.60261299 5.72292336 2.14226256 8.5625 4.5 C9.42746094 5.2115625 10.29242188 5.923125 11.18359375 6.65625 C12.11300781 7.4296875 13.04242188 8.203125 14 9 C15.03157697 9.8449419 16.06414506 10.68867508 17.09765625 11.53125 C19.73581491 13.68262584 22.3693447 15.83946181 25 18 C23.44301719 22.90543378 20.56676327 26.37950236 17.375 30.3125 C16.6015625 31.28026367 16.6015625 31.28026367 15.8125 32.26757812 C14.54705818 33.8493804 13.27425738 35.42529063 12 37 C8.72567359 36.39813169 6.83272201 35.31936513 4.28515625 33.19921875 C3.59873047 32.63396484 2.91230469 32.06871094 2.20507812 31.48632812 C1.49802734 30.89271484 0.79097656 30.29910156 0.0625 29.6875 C-1.34240454 28.52468717 -2.74735148 27.36192557 -4.15234375 26.19921875 C-4.81218262 25.64927246 -5.47202148 25.09932617 -6.15185547 24.53271484 C-8.41127292 22.65892055 -10.699623 20.82319508 -13 19 C-12.34 17.35 -11.68 15.7 -11 14 C-12.32 13.67 -13.64 13.34 -15 13 C-15 11.68 -15 10.36 -15 9 C-13.02 8.67 -11.04 8.34 -9 8 C-9 6.02 -9 4.04 -9 2 C-7.68 2 -6.36 2 -5 2 C-5 3.65 -5 5.3 -5 7 C-4.34 7 -3.68 7 -3 7 C-2.87625 6.401875 -2.7525 5.80375 -2.625 5.1875 C-2 3 -2 3 0 0 Z " fill="#B9B9B9" transform="translate(335,337)"/>
<path d="M0 0 C1 1 1 1 1.09765625 3.72265625 C1.08605469 4.82480469 1.07445312 5.92695313 1.0625 7.0625 C1.05347656 8.16722656 1.04445312 9.27195313 1.03515625 10.41015625 C1.02355469 11.26480469 1.01195312 12.11945313 1 13 C-3.65810496 13.57736854 -8.31710183 14.14669216 -12.97705078 14.70898438 C-14.55804126 14.90085371 -16.13877932 15.09481618 -17.71923828 15.29101562 C-26.18852817 16.34097187 -34.44688249 17.27424826 -43 17 C-43.33 17.66 -43.66 18.32 -44 19 C-46.71446979 19.31241455 -49.33909361 19.51336592 -52.0625 19.625 C-53.20041992 19.68300781 -53.20041992 19.68300781 -54.36132812 19.7421875 C-56.24047195 19.83673562 -58.12020336 19.91946756 -60 20 C-61.5912689 15.126739 -62.21192221 11.19209404 -62 6 C-49.47002903 4.55684616 -36.92566409 3.27704066 -24.37255859 2.0534668 C-23.13199707 1.93140869 -21.89143555 1.80935059 -20.61328125 1.68359375 C-19.50766846 1.57587646 -18.40205566 1.46815918 -17.26293945 1.35717773 C-14.94636689 1.10359407 -12.63491697 0.8010975 -10.32885742 0.46508789 C-6.83364889 -0.02324157 -3.52466516 -0.14098661 0 0 Z " fill="#6E6E6E" transform="translate(140,166)"/>
<path d="M0 0 C1.37478516 0.01740234 1.37478516 0.01740234 2.77734375 0.03515625 C3.69644531 0.04417969 4.61554688 0.05320313 5.5625 0.0625 C6.27277344 0.07410156 6.98304687 0.08570313 7.71484375 0.09765625 C7.05484375 0.42765625 6.39484375 0.75765625 5.71484375 1.09765625 C5.71484375 3.40765625 5.71484375 5.71765625 5.71484375 8.09765625 C4.06484375 8.09765625 2.41484375 8.09765625 0.71484375 8.09765625 C1.17890625 9.02578125 1.17890625 9.02578125 1.65234375 9.97265625 C2.33984375 11.34765625 3.02734375 12.72265625 3.71484375 14.09765625 C2.7803784 16.12910266 1.78259599 18.13299212 0.71484375 20.09765625 C4.17984375 19.60265625 4.17984375 19.60265625 7.71484375 19.09765625 C7.71484375 20.74765625 7.71484375 22.39765625 7.71484375 24.09765625 C-2.73337834 26.06769139 -12.61650502 27.60658484 -23.28515625 27.09765625 C-24.99510397 19.34182195 -25.53439083 12.03162357 -25.28515625 4.09765625 C-18.58275194 2.91149191 -11.93716172 1.87428826 -5.1484375 1.34375 C-2.71873052 1.0228453 -2.58709112 0.11055945 0 0 Z " fill="#CDCDCD" transform="translate(101.28515625,144.90234375)"/>
<path d="M0 0 C4.45064984 0.88108393 7.30908261 3.37500812 10.75 6.1875 C11.99687524 7.18814903 13.24426853 8.18815291 14.4921875 9.1875 C15.09256836 9.67089844 15.69294922 10.15429688 16.31152344 10.65234375 C19.48131802 13.18231282 22.7403108 15.58783 26 18 C25.06981474 19.46300982 24.13055973 20.92025579 23.1875 22.375 C22.66542969 23.18710937 22.14335937 23.99921875 21.60546875 24.8359375 C20 27 20 27 17 29 C16.17757813 28.28714844 15.35515625 27.57429688 14.5078125 26.83984375 C7.9117851 21.16585234 1.26962633 15.80812757 -6 11 C-5.39305845 7.84669446 -4.3583335 5.81111133 -2.4375 3.25 C-1.98246094 2.63640625 -1.52742188 2.0228125 -1.05859375 1.390625 C-0.70925781 0.93171875 -0.35992187 0.4728125 0 0 Z " fill="#5D5D5D" transform="translate(320,356)"/>
<path d="M0 0 C1 1 1 1 1.09765625 3.72265625 C1.08605469 4.82480469 1.07445312 5.92695313 1.0625 7.0625 C1.05347656 8.16722656 1.04445312 9.27195313 1.03515625 10.41015625 C1.02355469 11.26480469 1.01195312 12.11945313 1 13 C-2.93178271 13.4539453 -6.86443645 13.89927518 -10.7980957 14.33666992 C-12.79364742 14.56038648 -14.78843292 14.79090346 -16.78320312 15.02148438 C-18.03681641 15.16005859 -19.29042969 15.29863281 -20.58203125 15.44140625 C-22.31803589 15.63778687 -22.31803589 15.63778687 -24.08911133 15.83813477 C-27 16 -27 16 -30 15 C-30 11.37 -30 7.74 -30 4 C-20.33845181 1.23955766 -10.05649164 -0.38044735 0 0 Z " fill="#5C5C5C" transform="translate(140,166)"/>
<path d="M0 0 C0.24983757 5.74626409 -0.12670759 11.52036926 -2 17 C-2.99 17.66 -3.98 18.32 -5 19 C-3.35 19.33 -1.7 19.66 0 20 C0 20.33 0 20.66 0 21 C-3.96 21.33 -7.92 21.66 -12 22 C-12.33 22.99 -12.66 23.98 -13 25 C-13.268125 23.824375 -13.53625 22.64875 -13.8125 21.4375 C-14.51656342 18.57059428 -15.3815209 15.9880427 -16.625 13.3125 C-17.92518178 10.1802439 -18.30251825 8.32770078 -18 5 C-14.535 4.505 -14.535 4.505 -11 4 C-11 3.34 -11 2.68 -11 2 C-7.12315913 0.80712589 -4.08378077 0 0 0 Z " fill="#6A6A6A" transform="translate(88,127)"/>
<path d="M0 0 C2.5215548 1.04914045 4.68462912 2.18035084 6.91015625 3.7578125 C5.16208496 9.22518441 3.25221544 14.51606098 0.91015625 19.7578125 C-4.08984375 18.09114583 -9.08984375 16.42447917 -14.08984375 14.7578125 C-16.39984375 17.0678125 -18.70984375 19.3778125 -21.08984375 21.7578125 C-21.74984375 21.4278125 -22.40984375 21.0978125 -23.08984375 20.7578125 C-22.58453125 20.29890625 -22.07921875 19.84 -21.55859375 19.3671875 C-20.5840625 18.44679688 -20.5840625 18.44679688 -19.58984375 17.5078125 C-18.94015625 16.90453125 -18.29046875 16.30125 -17.62109375 15.6796875 C-15.67441513 13.64595742 -15.67441513 13.64595742 -16.08984375 9.7578125 C-14.16772585 7.66095661 -12.42315882 6.00104164 -10.21484375 4.2578125 C-9.63001221 3.79584473 -9.04518066 3.33387695 -8.44262695 2.85791016 C-5.47274717 0.73951176 -3.68306458 -0.28868521 0 0 Z " fill="#373737" transform="translate(369.08984375,322.2421875)"/>
<path d="M0 0 C4.51052789 0.90210558 7.70125091 2.11069488 11.8125 4.0625 C12.97394531 4.61035156 14.13539063 5.15820312 15.33203125 5.72265625 C16.21246094 6.14417969 17.09289062 6.56570313 18 7 C16.48680614 10.72413823 14.3235971 12.76513998 11.25 15.3125 C10.40953125 16.03050781 9.5690625 16.74851562 8.703125 17.48828125 C5.2099349 19.44184276 3.81186421 19.04874153 0 18 C-2.31 17.34 -4.62 16.68 -7 16 C-4.69 10.72 -2.38 5.44 0 0 Z " fill="#6B6B6B" transform="translate(318,302)"/>
<path d="M0 0 C0 5.94 0 11.88 0 18 C-3.36914062 19.46484375 -3.36914062 19.46484375 -6.73828125 20.9296875 C-9.1961834 22.02571894 -9.1961834 22.02571894 -12 24 C-14.1875 23.625 -14.1875 23.625 -16 23 C-15.85805236 20.93722893 -15.71127784 18.87478969 -15.5625 16.8125 C-15.48128906 15.66394531 -15.40007812 14.51539063 -15.31640625 13.33203125 C-14.73598574 7.21970167 -14.73598574 7.21970167 -14 5 C-12.07421875 3.671875 -12.07421875 3.671875 -9.6875 2.75 C-8.51767578 2.27820313 -8.51767578 2.27820313 -7.32421875 1.796875 C-2.08333333 0 -2.08333333 0 0 0 Z " fill="#5C5C5C" transform="translate(117,115)"/>
<path d="M0 0 C1.40765625 0.72703125 1.40765625 0.72703125 2.84375 1.46875 C3.68679688 1.82195312 4.52984375 2.17515625 5.3984375 2.5390625 C6.16414063 2.88710938 6.92984375 3.23515625 7.71875 3.59375 C8.49992187 3.94695312 9.28109375 4.30015625 10.0859375 4.6640625 C10.66601562 4.92960937 11.24609375 5.19515625 11.84375 5.46875 C10.21861184 7.19873578 8.56462012 8.83612963 6.84375 10.46875 C6.17730469 11.12746094 5.51085937 11.78617187 4.82421875 12.46484375 C2.55946567 14.49955185 0.57753617 16.11960877 -2.15625 17.46875 C-5.53625754 17.20537279 -8.13639363 15.93486983 -11.15625 14.46875 C-12.81464874 14.09645641 -14.47826275 13.7393931 -16.15625 13.46875 C-16.48625 12.47875 -16.81625 11.48875 -17.15625 10.46875 C-14.96665428 8.56710111 -12.75913683 6.69957525 -10.53125 4.84375 C-9.91378906 4.30234375 -9.29632813 3.7609375 -8.66015625 3.203125 C-3.94930228 -0.66473405 -3.94930228 -0.66473405 0 0 Z " fill="#5D5D5D" transform="translate(354.15625,316.53125)"/>
<path d="M0 0 C1.98 4.62 3.96 9.24 6 14 C3.56574148 16.43425852 1.29806168 17.29836541 -1.875 18.625 C-2.92429687 19.07101563 -3.97359375 19.51703125 -5.0546875 19.9765625 C-8 21 -8 21 -12 21 C-12 15.72 -12 10.44 -12 5 C-12.66 4.67 -13.32 4.34 -14 4 C-12.42032193 3.32471777 -10.83608097 2.66010306 -9.25 2 C-8.36828125 1.62875 -7.4865625 1.2575 -6.578125 0.875 C-4 0 -4 0 0 0 Z " fill="#3A3A3A" transform="translate(128,111)"/>
<path d="M0 0 C5.19644079 1.59890486 10.06612142 3.74138003 15 6 C14.09515208 7.15518918 13.1755794 8.29885406 12.25 9.4375 C11.73953125 10.07558594 11.2290625 10.71367187 10.703125 11.37109375 C8.71106841 13.27634053 7.76327489 13.91751418 5 14 C2.640625 12.56640625 2.640625 12.56640625 0.25 10.5625 C-0.54921875 9.90378906 -1.3484375 9.24507813 -2.171875 8.56640625 C-2.77515625 8.04949219 -3.3784375 7.53257812 -4 7 C-2.79618552 4.50638429 -1.54571278 2.31856917 0 0 Z " fill="#E7E7E7" transform="translate(339,329)"/>
<path d="M0 0 C1.32 0 2.64 0 4 0 C4 1.65 4 3.3 4 5 C5.65 5 7.3 5 9 5 C9.33 6.32 9.66 7.64 10 9 C8.02 9.33 6.04 9.66 4 10 C4 12.31 4 14.62 4 17 C2.35 17 0.7 17 -1 17 C-1 15.35 -1 13.7 -1 12 C-2.65 12 -4.3 12 -6 12 C-6 10.68 -6 9.36 -6 8 C-4.02 7.67 -2.04 7.34 0 7 C0 4.69 0 2.38 0 0 Z " fill="#5C5C5C" transform="translate(339,348)"/>
<path d="M0 0 C1.32 0 2.64 0 4 0 C4 1.65 4 3.3 4 5 C5.98 4.67 7.96 4.34 10 4 C10 5.32 10 6.64 10 8 C8.02 8.33 6.04 8.66 4 9 C4 11.31 4 13.62 4 16 C2.68 16 1.36 16 0 16 C0 14.35 0 12.7 0 11 C-1.98 11 -3.96 11 -6 11 C-6 9.68 -6 8.36 -6 7 C-4.02 6.67 -2.04 6.34 0 6 C0 4.02 0 2.04 0 0 Z " fill="#666666" transform="translate(326,339)"/>
<path d="M0 0 C0.99 0.33 1.98 0.66 3 1 C2.773125 2.093125 2.54625 3.18625 2.3125 4.3125 C1.59853617 7.90531273 1.59853617 7.90531273 3.4375 9.9375 C3.953125 10.288125 4.46875 10.63875 5 11 C4.67 11.99 4.34 12.98 4 14 C1.03824877 13.38722388 -0.38058783 12.74627478 -3 11 C-3.66 12.32 -4.32 13.64 -5 15 C-5.99 14.67 -6.98 14.34 -8 14 C-7.34 11.69 -6.68 9.38 -6 7 C-6.99 6.01 -7.98 5.02 -9 4 C-8.67 3.01 -8.34 2.02 -8 1 C-7.38125 1.165 -6.7625 1.33 -6.125 1.5 C-4.03936614 2.07634644 -4.03936614 2.07634644 -2 2 C-1.34 1.34 -0.68 0.68 0 0 Z " fill="#5A5A5A" transform="translate(126,149)"/>
<path d="M0 0 C1.32 0 2.64 0 4 0 C4 1.65 4 3.3 4 5 C5.65 4.67 7.3 4.34 9 4 C9.33 5.32 9.66 6.64 10 8 C8.02 8.33 6.04 8.66 4 9 C4 11.31 4 13.62 4 16 C2.68 16 1.36 16 0 16 C0 14.35 0 12.7 0 11 C-1.98 11 -3.96 11 -6 11 C-6 9.68 -6 8.36 -6 7 C-4.02 7 -2.04 7 0 7 C0 4.69 0 2.38 0 0 Z " fill="#636363" transform="translate(314,329)"/>
<path d="M0 0 C2 1 4 2 6 3 C6 2.01 6 1.02 6 0 C7.65 0.33 9.3 0.66 11 1 C10.01 3.31 9.02 5.62 8 8 C9.32 8.66 10.64 9.32 12 10 C11.34 11.32 10.68 12.64 10 14 C9.2575 13.62875 8.515 13.2575 7.75 12.875 C5.05716353 11.70484137 5.05716353 11.70484137 2.6875 12.875 C1.8521875 13.431875 1.8521875 13.431875 1 14 C0 12 0 12 0.5625 9 C0.706875 8.01 0.85125 7.02 1 6 C0.34 5.34 -0.32 4.68 -1 4 C-0.625 1.875 -0.625 1.875 0 0 Z " fill="#696969" transform="translate(87,153)"/>
<path d="M0 0 C0.99 0.33 1.98 0.66 3 1 C2.79375 2.11375 2.5875 3.2275 2.375 4.375 C2.25125 5.57125 2.1275 6.7675 2 8 C2.66 8.66 3.32 9.32 4 10 C3.625 12.125 3.625 12.125 3 14 C1 13 -1 12 -3 11 C-3.33 11.99 -3.66 12.98 -4 14 C-5.32 14 -6.64 14 -8 14 C-7.34 11.69 -6.68 9.38 -6 7 C-6.99 6.01 -7.98 5.02 -9 4 C-8.67 3.01 -8.34 2.02 -8 1 C-5.69 1.33 -3.38 1.66 -1 2 C-0.67 1.34 -0.34 0.68 0 0 Z " fill="#555555" transform="translate(110,151)"/>
<path d="M0 0 C5.3223297 1.63631496 10.30981576 3.83880041 15.375 6.125 C16.20644531 6.49753906 17.03789062 6.87007813 17.89453125 7.25390625 C19.93084255 8.16673546 21.96594539 9.08215598 24 10 C22.27685547 13.86572266 22.27685547 13.86572266 19.78515625 15.07421875 C15.60015254 14.96269691 13.37715293 12.51535696 10.4375 9.8125 C9.87353516 9.31685547 9.30957031 8.82121094 8.72851562 8.31054688 C5.71392576 5.64148895 2.8132464 2.88202993 0 0 Z " fill="#2C2C2C" transform="translate(314,318)"/>
<path d="M0 0 C-1.58297649 3.88548776 -3.74302719 6.36670284 -7 9 C-9.80266326 9.59296075 -12.46399499 9.47796276 -15.3125 9.3125 C-16.05306641 9.28994141 -16.79363281 9.26738281 -17.55664062 9.24414062 C-19.37197357 9.1855815 -21.18625681 9.09590886 -23 9 C-21.64648695 6.29297391 -20.42498793 6.24857106 -17.59765625 5.2734375 C-16.26250977 4.809375 -16.26250977 4.809375 -14.90039062 4.3359375 C-13.96388672 4.01882812 -13.02738281 3.70171875 -12.0625 3.375 C-11.12986328 3.05015625 -10.19722656 2.7253125 -9.23632812 2.390625 C-2.29045759 0 -2.29045759 0 0 0 Z " fill="#313131" transform="translate(105,138)"/>
<path d="M0 0 C0 1.32 0 2.64 0 4 C-1.98 4.33 -3.96 4.66 -6 5 C-6 7.31 -6 9.62 -6 12 C-7.32 12 -8.64 12 -10 12 C-9.74806895 7.71717217 -9.37629014 5.47799018 -6.6875 2.0625 C-4 0 -4 0 0 0 Z " fill="#545454" transform="translate(336,343)"/>
<path d="M0 0 C0.66 0.33 1.32 0.66 2 1 C0.56354149 2.60509934 -0.87420706 4.20904424 -2.3125 5.8125 C-3.11300781 6.70582031 -3.91351563 7.59914063 -4.73828125 8.51953125 C-5.48464844 9.33808594 -6.23101562 10.15664063 -7 11 C-7.79470703 11.90298828 -7.79470703 11.90298828 -8.60546875 12.82421875 C-10 14 -10 14 -13 14 C-13.33 13.01 -13.66 12.02 -14 11 C-9.38 7.37 -4.76 3.74 0 0 Z " fill="#6B6B6B" transform="translate(351,316)"/>
<path d="M0 0 C0.33 0 0.66 0 1 0 C3.125 12.75 3.125 12.75 1 17 C0.01 17 -0.98 17 -2 17 C-1.85848172 14.9163691 -1.71162064 12.83310062 -1.5625 10.75 C-1.48128906 9.58984375 -1.40007812 8.4296875 -1.31640625 7.234375 C-1.06752213 4.69022624 -0.71885058 2.44046752 0 0 Z " fill="#696969" transform="translate(103,121)"/>
<path d="M0 0 C2.8992226 0.46761655 3.86675182 0.86675182 6 3 C5.01 4.98 4.02 6.96 3 9 C1.66666667 6.33333333 0.33333333 3.66666667 -1 1 C-0.67 0.67 -0.34 0.34 0 0 Z " fill="#717171" transform="translate(102,152)"/>
<path d="M0 0 C0.33 0 0.66 0 1 0 C1.33 2.31 1.66 4.62 2 7 C1.34 7 0.68 7 0 7 C-0.33 7.99 -0.66 8.98 -1 10 C-2.32 10 -3.64 10 -5 10 C-3.33333333 6.66666667 -1.66666667 3.33333333 0 0 Z " fill="#636363" transform="translate(107,155)"/>
</svg>
